<mxfile host="Electron" agent="Mozilla/5.0 (X11; Linux x86_64) AppleWebKit/537.36 (KHTML, like Gecko) draw.io/27.0.9 Chrome/134.0.6998.205 Electron/35.7.1 Safari/537.36" version="27.0.9">
  <diagram name="Page-1" id="hak2sEHVd9dUk83WOQ-b">
    <mxGraphModel dx="1394" dy="957" grid="1" gridSize="10" guides="1" tooltips="1" connect="1" arrows="1" fold="1" page="1" pageScale="1" pageWidth="827" pageHeight="1169" math="0" shadow="0">
      <root>
        <mxCell id="0" />
        <mxCell id="1" parent="0" />
        <mxCell id="HktgOt57yXTjoHdC2C-s-3" value="" style="rounded=0;whiteSpace=wrap;html=1;gradientDirection=south;gradientColor=none;fillColor=none;" vertex="1" parent="1">
          <mxGeometry x="40" y="40" width="760" height="640" as="geometry" />
        </mxCell>
        <mxCell id="HktgOt57yXTjoHdC2C-s-4" value="Experience" style="rounded=1;whiteSpace=wrap;html=1;labelPosition=center;verticalLabelPosition=middle;align=center;verticalAlign=middle;" vertex="1" parent="1">
          <mxGeometry x="80" y="80" width="240" height="160" as="geometry" />
        </mxCell>
        <mxCell id="HktgOt57yXTjoHdC2C-s-5" value="Projects" style="rounded=1;whiteSpace=wrap;html=1;labelPosition=center;verticalLabelPosition=middle;align=center;verticalAlign=middle;" vertex="1" parent="1">
          <mxGeometry x="80" y="280" width="240" height="160" as="geometry" />
        </mxCell>
        <mxCell id="HktgOt57yXTjoHdC2C-s-6" value="Education" style="rounded=1;whiteSpace=wrap;html=1;labelPosition=center;verticalLabelPosition=middle;align=center;verticalAlign=middle;" vertex="1" parent="1">
          <mxGeometry x="80" y="480" width="240" height="160" as="geometry" />
        </mxCell>
        <mxCell id="HktgOt57yXTjoHdC2C-s-7" value="Information" style="rounded=1;whiteSpace=wrap;html=1;" vertex="1" parent="1">
          <mxGeometry x="360" y="80" width="400" height="560" as="geometry" />
        </mxCell>
      </root>
    </mxGraphModel>
  </diagram>
</mxfile>
